HIERARCHY
ROOT Hips
{
	OFFSET -3.958830 18.904000 13.208200
	CHANNELS 6 Xposition Yposition Zposition Zrotation Yrotation Xrotation 
	JOINT LHipJoint
	{
		OFFSET 0.000000 0.000000 0.000000
		CHANNELS 3 Zrotation Yrotation Xrotation
		JOINT LeftUpLeg
		{
			OFFSET 1.800000 -1.400000 0.085000
			CHANNELS 3 Zrotation Yrotation Xrotation
			JOINT LeftLeg
			{
				OFFSET 2.215000 -6.000000 0.000000
				CHANNELS 3 Zrotation Yrotation Xrotation
				JOINT LeftFoot
				{
					OFFSET 2.500000 -6.900000 0.000000
					CHANNELS 3 Zrotation Yrotation Xrotation
					JOINT LeftToeBase
					{
						OFFSET 0.200000 -0.500000 1.950000
						CHANNELS 3 Zrotation Yrotation Xrotation
						End Site
						{
							OFFSET 0.000000 0.000000 0.000000
						}
					}
				}
			}
		}
	}
	JOINT RHipJoint
	{
		OFFSET 0.000000 0.000000 0.000000
		CHANNELS 3 Zrotation Yrotation Xrotation
		JOINT RightUpLeg
		{
			OFFSET -1.800000 -1.400000 0.085000
			CHANNELS 3 Zrotation Yrotation Xrotation
			JOINT RightLeg
			{
				OFFSET -2.215000 -6.000000 0.000000
				CHANNELS 3 Zrotation Yrotation Xrotation
				JOINT RightFoot
				{
					OFFSET -2.500000 -6.900000 0.000000
					CHANNELS 3 Zrotation Yrotation Xrotation
					JOINT RightToeBase
					{
						OFFSET -0.200000 -0.500000 1.950000
						CHANNELS 3 Zrotation Yrotation Xrotation
						End Site
						{
							OFFSET 0.000000 0.000000 0.000000
						}
					}
				}
			}
		}
	}
	JOINT LowerBack
	{
		OFFSET 0.000000 0.000000 0.000000
		CHANNELS 3 Zrotation Yrotation Xrotation
		JOINT Spine
		{
			OFFSET -0.087000 1.940000 -0.288900
			CHANNELS 3 Zrotation Yrotation Xrotation
			JOINT Spine1
			{
				OFFSET 0.000000 1.950000 0.060000
				CHANNELS 3 Zrotation Yrotation Xrotation
				JOINT Neck
				{
					OFFSET 0.000000 0.000000 0.000000
					CHANNELS 3 Zrotation Yrotation Xrotation
					JOINT Neck1
					{
						OFFSET 0.000000 1.600000 0.340000
						CHANNELS 3 Zrotation Yrotation Xrotation
						JOINT Head
						{
							OFFSET 0.000000 1.667000 -0.240000
							CHANNELS 3 Zrotation Yrotation Xrotation
							End Site
							{
								OFFSET 0.000000 0.000000 0.000000
							}
						}
					}
				}
				JOINT LeftShoulder
				{
					OFFSET 0.000000 0.000000 0.000000
					CHANNELS 3 Zrotation Yrotation Xrotation
					JOINT LeftArm
					{
						OFFSET 2.700000 1.550000 -0.730000
						CHANNELS 3 Zrotation Yrotation Xrotation
						JOINT LeftForeArm
						{
							OFFSET 5.450000 0.000000 0.000000
							CHANNELS 3 Zrotation Yrotation Xrotation
							JOINT LeftHand
							{
								OFFSET 3.450000 0.000000 0.000000
								CHANNELS 3 Zrotation Yrotation Xrotation
								JOINT LeftHandIndex1
								{
									OFFSET 0.750000 0.000000 0.000000
									CHANNELS 3 Zrotation Yrotation Xrotation
									End Site
									{
										OFFSET 0.000000 0.000000 0.000000
									}
								}
							}
						}
					}
				}
				JOINT RightShoulder
				{
					OFFSET 0.000000 0.000000 0.000000
					CHANNELS 3 Zrotation Yrotation Xrotation
					JOINT RightArm
					{
						OFFSET -2.700000 1.550000 -0.730000
						CHANNELS 3 Zrotation Yrotation Xrotation
						JOINT RightForeArm
						{
							OFFSET -5.450000 0.000000 0.000000
							CHANNELS 3 Zrotation Yrotation Xrotation
							JOINT RightHand
							{
								OFFSET -3.450000 0.000000 0.000000
								CHANNELS 3 Zrotation Yrotation Xrotation
								JOINT RightHandIndex1
								{
									OFFSET -0.750000 0.000000 0.000000
									CHANNELS 3 Zrotation Yrotation Xrotation
									End Site
									{
										OFFSET 0.000000 0.000000 0.000000
									}
								}
							}
						}
					}
				}
			}
		}
	}
}
MOTION
Frames: 10
Frame Time: 0.016667
1.811820 16.582990 -2.120100 1.197075 -20.144278 -0.030453 -14.928101 12.546577 1.919881 12.093892 -0.373228 -9.172875 -9.997788 12.528756 31.646711 -0.263168 7.645141 2.104594 0.206420 0.027640 -0.249320 18.771299 -8.838674 5.064593 -18.204179 10.267439 -39.686041 38.945702 -19.630020 33.369748 -1.331345 -8.718190 1.726208 0.153410 0.725830 -0.065790 -4.872474 -2.035264 -7.749428 18.225964 -6.039806 12.781788 -12.844032 -3.035292 6.838557 1.246450 -12.552516 -11.668337 -32.702983 17.143099 35.147503 -0.064270 2.105100 -8.677600 -15.333728 -7.001757 4.652634 -42.405229 -3.218596 -3.152456 -4.108548 -23.520492 -1.132987 -3.784233 2.425543 0.696070 0.257440 -0.277230 0.369990 12.536848 14.389452 6.267922 41.948771 11.890584 -4.521203 51.983538 47.313919 17.856785 1.810800 -1.399902 -0.555090 0.770010 0.236580 -0.097780 
1.815060 16.552880 -2.124500 1.360852 -20.108575 -0.878263 -14.912389 12.497992 1.918698 12.201047 -0.350258 -9.092950 -9.906219 12.973911 33.132001 -0.224390 7.888115 2.012883 0.229870 0.043610 -0.210140 18.786185 -8.806411 5.162907 -19.877654 10.073939 -39.557759 41.136703 -20.267723 32.842703 -1.413799 -8.900434 1.664301 0.163560 0.685760 -0.078760 -4.923060 -1.961103 -7.845851 18.341838 -6.278998 13.936114 -13.510201 -3.104436 6.356674 1.471494 -12.426594 -11.780939 -32.764456 17.524149 36.335232 -0.511770 2.358380 -9.304420 -16.555647 -7.764945 4.773637 -41.380446 -2.798166 -2.798028 -3.403055 -20.990430 -1.179048 -3.757738 2.389740 0.735440 0.225810 -0.247520 0.368820 13.287819 15.071660 6.257712 42.715651 12.753872 -4.336407 52.387729 47.133287 17.907321 1.828523 -1.380077 -0.564770 0.776640 0.215870 -0.118090 
1.828050 16.486360 -2.138390 1.512705 -20.649477 -1.853791 -14.893051 12.326968 1.883673 12.359091 -0.272847 -9.687284 -9.448659 13.838458 36.270493 -0.136926 8.354822 1.824556 0.260550 0.078980 -0.163280 18.829184 -8.672169 5.450160 -23.687516 9.920517 -40.056512 46.702716 -21.327027 30.964045 -1.564583 -9.206444 1.564725 0.178100 0.631330 -0.094880 -5.055352 -1.736520 -8.026818 18.897316 -6.352212 15.794130 -14.660819 -2.819780 5.555681 1.803972 -12.321759 -11.986121 -32.971611 18.379930 37.774935 -0.905160 2.691030 -10.523630 -18.239324 -8.753693 4.988753 -40.730666 -2.055544 -2.469731 -0.799383 -17.643306 -1.411585 -3.730275 2.339486 0.775610 0.182940 -0.205730 0.355970 14.255616 16.128779 6.201123 44.449972 14.360734 -3.908577 53.481104 47.052760 18.246899 1.858969 -1.349960 -0.562290 0.787140 0.198190 -0.136380 
1.834440 16.429530 -2.167490 1.205114 -21.556746 -2.902203 -14.875006 12.131955 1.870692 13.275170 0.025932 -10.416843 -9.172074 15.058874 39.639609 -0.047974 8.962900 1.561637 0.328330 0.143200 -0.069180 18.871001 -8.556448 5.705474 -27.076175 10.157462 -40.152422 52.131548 -21.399880 28.254371 -1.686860 -9.271714 1.505281 0.212930 0.532300 -0.087910 -5.203277 -1.409162 -8.188775 20.192132 -6.456957 18.070387 -15.742307 -2.362101 5.217910 2.270803 -12.283806 -12.222732 -33.449838 19.395426 39.453651 -2.133440 3.017350 -13.032920 -19.448221 -9.824458 5.206553 -40.740133 -1.990858 -1.760500 1.702483 -13.282991 -1.501589 -3.702877 2.302607 0.840520 0.117830 -0.131820 0.327490 14.490104 17.439533 6.053466 45.934029 16.997199 -3.205539 55.453066 48.291776 19.608091 1.886114 -1.333876 -0.545040 0.780160 0.174050 -0.172480 
1.837720 16.398790 -2.206260 1.011231 -22.321136 -4.321222 -14.864015 11.986608 1.846079 13.980499 0.500224 -11.092822 -8.364016 16.075208 43.015456 0.058406 9.482709 1.328254 0.444480 0.268200 0.048000 18.897086 -8.476745 5.928252 -30.385008 10.384609 -39.332732 57.195748 -20.217361 24.514532 -1.777834 -9.104045 1.514506 0.266910 0.406890 -0.078300 -5.314822 -1.089827 -8.315452 21.157975 -6.539139 20.537671 -16.463127 -1.854593 5.576404 2.705703 -12.274663 -12.744262 -34.422793 20.593180 41.608813 -2.758600 2.720750 -16.382900 -20.372818 -11.336426 5.759373 -41.107014 -1.675083 -1.342686 4.690781 -9.855046 -1.502343 -3.627980 2.302273 0.903550 0.025560 -0.029880 0.317870 14.624916 19.391232 6.045148 46.501349 20.131193 -2.647821 56.646852 51.481415 21.600931 1.917010 -1.316839 -0.493460 0.771080 0.117550 -0.193380 
1.828790 16.373650 -2.232610 0.860162 -22.485342 -5.133849 -14.855954 11.900581 1.733751 13.963183 1.028522 -12.164424 -6.195318 16.223397 46.190614 0.109077 9.813527 1.187422 0.467910 0.288560 0.079130 18.929047 -8.377960 6.198701 -34.003360 10.387799 -38.248475 61.929333 -17.795345 19.654259 -1.776388 -8.815270 1.577594 0.275740 0.370570 -0.070160 -5.410256 -0.852322 -8.396763 22.100131 -6.278619 21.748667 -16.846888 -1.202317 6.316771 3.121979 -12.255541 -13.402930 -35.047527 21.332990 43.487994 -3.348830 2.107810 -17.264520 -21.259674 -12.849406 6.544642 -40.863759 -0.525446 -1.146555 6.043600 -7.847479 -1.388363 -3.610165 2.296845 0.926580 -0.002300 0.000060 0.300920 14.812265 21.503303 6.213397 45.785033 23.008124 -1.933768 58.062190 55.909474 24.580870 1.930329 -1.284742 -0.478300 0.774020 0.120840 -0.200360 
1.807720 16.352180 -2.253570 0.869760 -22.575700 -5.413883 -14.854113 11.825667 1.606661 13.450727 1.491056 -13.544866 -3.648859 15.964901 49.086200 0.079218 10.105565 1.080777 0.431980 0.206290 0.116380 18.962350 -8.274007 6.472671 -37.345770 10.292362 -37.060799 64.966180 -14.800037 14.983496 -1.709739 -8.474458 1.658607 0.258460 0.377200 -0.091570 -5.493666 -0.651370 -8.458181 22.654696 -5.579511 22.062128 -17.058477 -0.391846 7.308811 3.514432 -12.152219 -13.791329 -34.658447 21.593658 45.134683 -4.362900 1.895150 -17.387410 -21.291500 -13.534172 7.015254 -40.669456 0.355448 -0.923043 7.153174 -6.238862 -1.308051 -3.647289 2.218831 0.973390 -0.002160 -0.021970 0.251070 14.155060 22.734652 6.338195 46.186130 25.921878 -0.729573 59.355936 60.700928 27.844697 1.932038 -1.208891 -0.540830 0.815200 0.166260 -0.249360 
1.771940 16.350540 -2.263400 1.018354 -22.608456 -5.734615 -14.840542 11.815753 1.414181 12.586082 2.123115 -14.105797 -0.957242 15.099015 50.633107 0.036133 10.076205 1.088737 0.426990 0.181680 0.143640 18.998082 -8.229730 6.748965 -40.356862 10.319257 -35.361490 66.332765 -11.623284 10.762917 -1.649420 -8.138004 1.759665 0.254110 0.371250 -0.110610 -5.584143 -0.443653 -8.472386 23.075204 -4.750022 22.021854 -17.276299 0.382718 8.581911 3.919226 -11.969315 -14.418466 -34.054498 21.875993 46.967084 -4.707840 1.839340 -17.742320 -20.542450 -14.375230 7.822888 -40.474970 1.617600 -0.745590 8.185150 -4.713886 -1.144038 -3.649179 2.174550 1.006780 -0.011600 -0.020990 0.236000 12.781724 24.120540 6.577989 46.211216 29.108401 0.649642 59.316224 65.981113 30.748883 1.926617 -1.138393 -0.570690 0.845400 0.175070 -0.274200 
1.719660 16.374040 -2.266690 1.068873 -22.387402 -6.163032 -14.806371 11.866190 1.210861 11.944082 2.827385 -13.886956 1.390108 13.969631 50.753444 -0.019970 9.830701 1.180511 0.394310 0.146580 0.127760 19.028805 -8.297998 6.929063 -42.017114 10.549035 -32.947358 65.373298 -8.730725 7.258119 -1.549683 -7.829788 1.853693 0.241760 0.388150 -0.134030 -5.674526 -0.203850 -8.428901 23.406010 -3.941851 21.773937 -17.330620 0.947427 10.132779 4.205399 -12.024076 -14.937904 -33.644860 21.669265 48.072156 -4.960760 1.467370 -17.205600 -19.933477 -14.994475 8.710334 -39.327984 3.267491 -0.681035 9.275369 -4.216062 -1.020531 -3.652855 2.158230 0.997210 -0.002080 -0.044670 0.224790 11.820416 25.467998 6.732330 44.718072 32.562910 2.069641 56.756114 72.090726 32.967426 1.874370 -1.109190 -0.592590 0.864900 0.191800 -0.276300 
1.645700 16.418830 -2.253570 1.334751 -22.135951 -7.101381 -14.752195 11.983248 1.008148 11.333953 3.658598 -12.470451 3.426155 12.727198 49.864258 -0.116372 9.475859 1.308260 0.368730 0.114430 0.111760 19.048514 -8.511858 7.001328 -42.656685 10.928782 -29.928195 62.788426 -6.849550 5.003165 -1.471187 -7.640601 1.890148 0.234110 0.406000 -0.124920 -5.761853 0.097074 -8.335892 23.330949 -2.978492 21.830884 -17.402262 1.581785 11.964840 4.455453 -11.980456 -15.157385 -32.349025 21.046777 49.090150 -5.112500 1.273810 -17.595750 -19.154883 -15.359775 9.397004 -37.140668 4.641836 -0.411300 8.632696 -3.611788 -0.933974 -3.672984 2.134448 1.010650 0.010700 -0.050300 0.213500 10.745762 26.417062 6.722515 42.738862 35.556151 2.555136 51.973587 77.866875 33.339467 1.729096 -1.157844 -0.611700 0.878450 0.220610 -0.282600 
